<?xml version="1.0" encoding="UTF-8" standalone="no"?>
<svg
   xmlns:dc="http://purl.org/dc/elements/1.1/"
   xmlns:cc="http://creativecommons.org/ns#"
   xmlns:rdf="http://www.w3.org/1999/02/22-rdf-syntax-ns#"
   xmlns:svg="http://www.w3.org/2000/svg"
   xmlns="http://www.w3.org/2000/svg"
   xmlns:sodipodi="http://sodipodi.sourceforge.net/DTD/sodipodi-0.dtd"
   xmlns:inkscape="http://www.inkscape.org/namespaces/inkscape"
   width="13.375in"
   height="11.2778in"
   viewBox="0 0 963 812"
   id="svg3347"
   version="1.1"
   inkscape:version="0.91 r13725"
   sodipodi:docname="logo.svg"
   inkscape:export-filename="/home/david/code/js/squad-view/src/assets/wings-logo.png"
   inkscape:export-xdpi="90"
   inkscape:export-ydpi="90">
  <metadata
     id="metadata3354">
    <rdf:RDF>
      <cc:Work
         rdf:about="">
        <dc:format>image/svg+xml</dc:format>
        <dc:type
           rdf:resource="http://purl.org/dc/dcmitype/StillImage" />
        <dc:title></dc:title>
      </cc:Work>
    </rdf:RDF>
  </metadata>
  <defs
     id="defs3352" />
  <sodipodi:namedview
     pagecolor="#ffffff"
     bordercolor="#666666"
     borderopacity="1"
     objecttolerance="10"
     gridtolerance="10"
     guidetolerance="10"
     inkscape:pageopacity="0"
     inkscape:pageshadow="2"
     inkscape:window-width="915"
     inkscape:window-height="1116"
     id="namedview3350"
     showgrid="false"
     inkscape:zoom="0.46502373"
     inkscape:cx="795.26989"
     inkscape:cy="268.87328"
     inkscape:window-x="975"
     inkscape:window-y="54"
     inkscape:window-maximized="0"
     inkscape:current-layer="svg3347" />
  <path
     d="M 67,2 C 56.81,13.87 51.36,28.99 47.63,44 40.77,71.56 40,98.8 40,127 32.95,113.23 30.71,93.36 30,78 24.02,82.67 22,87.4 18.76,94 12.01,107.71 8.4,122.98 5.92,138 -2.65,189.85 3.4,255.09 16.13,306 c 15.4,61.64 44.8,127.07 91.87,170.91 27.13,25.27 42.03,28.72 69,47.12 23.4,15.96 44.63,35.27 63.91,55.97 38.12,40.92 72.41,96.41 96.31,147 0,0 19.77,45 19.77,45 0,0 13.01,31 13.01,31 0,0 1.42,-10 1.42,-10 0,0 0.58,-36 0.58,-36 0,0 0,-29 0,-29 0,0 -0.96,-12 -0.96,-12 0,0 0,-16 0,-16 0,0 -1.04,-17 -1.04,-17 0,0 -2,-37 -2,-37 0,0 20.69,35 20.69,35 0,0 19.31,46 19.31,46 0,0 1,-7 1,-7 6.26,8.85 7.33,24.14 10.43,35 6.2,21.76 12.13,35.95 24.57,55 5.58,-5.99 9.4,-14.59 12.77,-22 6.83,-15 16.88,-48.81 17.23,-65 0,0 8,11 8,11 0,0 6,-10 6,-10 0,0 7.43,31 7.43,31 6.2,21.76 12.13,35.95 24.57,55 5.3,-5.7 9.12,-13.94 12.3,-21 5.44,-12.04 9.76,-25.14 12.82,-38 0,0 4.98,-22 4.98,-22 0,0 3.9,-9 3.9,-9 0,0 1,7 1,7 0,0 7.42,-15 7.42,-15 0,0 12.89,-31 12.89,-31 0,0 19.69,-35 19.69,-35 0,0 0,14 0,14 0,0 0,9 0,9 0,0 -1,14 -1,14 0,0 -1,16 -1,16 0,0 0,14 0,14 0,0 -1,15 -1,15 0,0 0,56 0,56 0,0 1,19 1,19 3.97,-4.15 6.78,-13.43 9.15,-19 0,0 18.16,-43 18.16,-43 19.84,-43.23 41.75,-82.5 69.84,-121 24.64,-33.78 56,-66.26 89.85,-90.85 0,0 43,-26.84 43,-26.84 16.39,-10.55 28.35,-20.34 41.99,-34.31 21.3,-21.83 37.68,-47.85 51.26,-75 33.01,-66.03 46.6,-140.61 45.75,-214 0,0 -1,-10 -1,-10 0,0 0,-8 0,-8 -1.27,-17.33 -5.57,-41.87 -11.81,-58 -3.29,-8.49 -7.95,-19.31 -15.19,-25 -0.54,11.79 -1.87,23.56 -4.88,35 0,0 -4.12,14 -4.12,14 -1.72,-6.05 -0.99,-15.47 -1,-22 0,0 -1,-12 -1,-12 0,0 0,-8 0,-8 C 921.75,67.97 917.56,43.91 911.58,28 908.29,19.26 903.42,7.84 896,2 c -0.83,18.17 -3.67,36.31 -11.31,53 -3.01,6.57 -6.47,12.93 -10.38,19 0,0 -8.31,13 -8.31,13 0,0 -8,-9 -8,-9 -0.14,3.13 -1.15,16.95 -2.17,19 -1.58,3.16 -7.15,8.32 -9.83,11 -8.16,8.14 -17.01,15.41 -26,22.6 -38.74,30.98 -83.21,54.31 -124,82.42 -14.56,10.04 -31.04,22.87 -42.83,35.98 -9.22,10.25 -25.35,36.28 -31.91,49 0,0 -13.25,29 -13.25,29 0,0 -6.91,17 -6.91,17 0,0 -7.68,12 -7.68,12 0,0 -10.16,18 -10.16,18 -9.92,19.21 -17.76,39.51 -24.59,60 -2.89,8.67 -8.96,26.52 -9.67,35 0,0 -6.42,-43 -6.42,-43 0,0 -12.33,-79 -12.33,-79 0,0 -8.25,-42 -8.25,-42 0,0 -5.42,23 -5.42,23 0,0 -8.58,45 -8.58,45 0,0 -5.27,-36 -5.27,-36 0,0 -10.65,-67 -10.65,-67 0,0 -8.08,-41 -8.08,-41 0,0 -4.2,17 -4.2,17 0,0 -5.8,29 -5.8,29 0,0 -10.25,57 -10.25,57 0,0 -4.75,35 -4.75,35 0,0 -4.75,-20 -4.75,-20 0,0 -8.25,-42 -8.25,-42 0,0 -4.6,19 -4.6,19 0,0 -6.6,33 -6.6,33 0,0 -13.07,77 -13.07,77 0,0 -4.73,37 -4.73,37 -2.78,-5.73 -4.12,-12.8 -6.02,-19 0,0 -13.03,-39 -13.03,-39 -6.34,-17.26 -14.86,-34.96 -23.81,-51 0,0 -11.77,-19 -11.77,-19 0,0 -5.97,-15 -5.97,-15 0,0 -9.71,-22 -9.71,-22 C 335.79,282.25 317.33,253.63 298,236.17 262.69,204.28 192.95,168.42 151,135.99 140.01,127.49 128.89,118.77 119,109 c -2.8,-2.77 -9.22,-8.79 -10.83,-12 -1.02,-2.05 -2.03,-15.87 -2.17,-19 0,0 -8,9 -8,9 C 98,87 89.69,74 89.69,74 83.09,63.74 77.64,52.66 74.02,41 72.16,34.98 69.77,24.22 69.17,18 68.61,12.23 69.42,7.67 67,2 Z"
     id="path3362"
     style="fill:#58b86e;fill-opacity:1" />
  <path
     d="m 67,78 c -18,20.97 -23.28,55.21 -25.96,82 0,0 0,9 0,9 0,0 -1.04,10 -1.04,10 -0.85,73.38 12.74,147.98 45.75,214 13.14,26.28 28.88,51.66 49.29,73 13.23,13.84 26.91,25.23 42.96,35.66 0,0 16,9.35 16,9.35 0,0 31,20.14 31,20.14 30.73,22.64 58.17,51.81 81.58,81.85 29.37,37.7 55.17,84.56 75.11,128 0,0 19.46,46 19.46,46 0,0 6.85,16 6.85,16 1.88,-4.73 2,-20.3 2,-26 0,0 0,-49 0,-49 0,0 -1,-17 -1,-17 0,0 -3.91,-71 -3.91,-71 -4.35,-62.17 -15.46,-132.3 -33.37,-192 -10.4,-34.66 -24.25,-69.79 -44.39,-100 -5.22,-7.83 -10.18,-15.98 -16.5,-23 C 291.6,303.63 263.31,285.36 239,269.95 197.41,243.57 139.36,209.58 107.29,173 92.44,156.07 79.66,136.85 73.43,115 71.85,109.47 69.72,99.65 69.17,94 68.61,88.23 69.42,83.67 67,78 Z"
     id="path3360"
     style="fill:#ffffff" />
  <path
     d="m 896,78 c -0.69,14.94 -2.65,29.83 -7.69,44 -10.19,28.64 -30.82,52.35 -53.31,72.15 -32.75,28.84 -72.99,52.58 -110,75.8 -24.88,15.6 -61.26,39.53 -78.26,63.05 -38.21,52.86 -58.3,116.54 -70.54,180 -9.2,47.67 -14.96,91.62 -18.29,140 0,0 -1.91,32 -1.91,32 0,0 -1,13 -1,13 0,0 0,15 0,15 0,0 -1,15 -1,15 0,0 0,56 0,56 0,0 1,19 1,19 3.87,-4.06 5.28,-9.9 7.42,-15 0,0 12.01,-29 12.01,-29 11.69,-27.4 24.85,-54.03 39.43,-80 28.57,-50.89 66.92,-100.53 112.14,-137.58 10.96,-8.97 22.96,-17.54 35,-25 0,0 21,-12.42 21,-12.42 -1.83,-5.51 -11.7,-18.23 -15.57,-25 -9.29,-16.23 -12.17,-24.86 -15.43,-43 15.34,15.33 28.76,24.18 49,31.81 4,1.5 16.18,5.62 20,4.84 5.53,-1.14 14.65,-12.59 17,-17.65 -19.41,-12.31 -43.31,-36.98 -51,-59 16.84,12.03 44.43,18.76 65,19 4.1,0.04 12.24,0.32 15.62,-1.98 2.97,-2.02 6.44,-9.64 8.13,-13.02 0,0 14.53,-31 14.53,-31 19.42,-45.03 31.63,-103.06 33.76,-152 0,0 0.96,-11 0.96,-11 0.36,-31.43 -0.9,-62.57 -9.58,-93 C 911.3,102.07 905.02,85.1 896,78 Z"
     id="path3358"
     style="fill:#ffffff" />
  <path
     d="m 483,305 c 0,0 -6.2,31 -6.2,31 0,0 -10.38,56 -10.38,56 -7.27,40.35 -12.51,81.24 -16.59,122 0,0 -3.83,40 -3.83,40 0,0 0,9 0,9 0,0 -1,12 -1,12 0,0 -1,17 -1,17 0,0 0,65 0,65 0,0 0.96,13 0.96,13 0.78,17.79 2.67,35.41 5.63,53 3.8,22.65 9.57,46.27 19.67,67 0,0 11.74,20 11.74,20 6.79,-7.3 12.86,-21.56 16.42,-31 8.97,-23.75 13.73,-48.85 16.73,-74 0,0 2.85,-27 2.85,-27 0,0 0,-9 0,-9 0,0 1,-12 1,-12 0,0 0,-23 0,-23 0,0 0.97,-14 0.97,-14 0,0 -0.97,-14 -0.97,-14 -0.09,-60.35 -6.71,-128.15 -15.58,-188 0,0 -12.67,-80 -12.67,-80 0,0 -3.95,-21 -3.95,-21 -0.87,-4.34 -1.07,-8.44 -3.8,-12 z"
     id="Selection #5"
     style="fill:#ffffff" />
</svg>
